<?xml version="1.0" encoding="UTF-8"?>
<!DOCTYPE svg PUBLIC "-//W3C//DTD SVG 1.1//EN" "http://www.w3.org/Graphics/SVG/1.1/DTD/svg11.dtd">
<svg xmlns="http://www.w3.org/2000/svg" version="1.1" width="180px" height="180px" style="shape-rendering:geometricPrecision; text-rendering:geometricPrecision; image-rendering:optimizeQuality; fill-rule:evenodd; clip-rule:evenodd" xmlns:xlink="http://www.w3.org/1999/xlink">
<g><path style="opacity:1" fill="#77c0e8" d="M -0.5,-0.5 C 1.16667,-0.5 2.83333,-0.5 4.5,-0.5C 13.4856,11.1491 22.8189,22.4825 32.5,33.5C 30.8652,39.7361 29.8652,46.0695 29.5,52.5C 29.631,53.2389 29.4643,53.9056 29,54.5C 19.2984,44.6311 9.46505,34.9645 -0.5,25.5C -0.5,16.8333 -0.5,8.16667 -0.5,-0.5 Z"/></g>
<g><path style="opacity:1" fill="#575758" d="M 4.5,-0.5 C 12.1667,-0.5 19.8333,-0.5 27.5,-0.5C 31.844,4.87278 36.1773,10.2061 40.5,15.5C 37.2866,21.2598 34.62,27.2598 32.5,33.5C 22.8189,22.4825 13.4856,11.1491 4.5,-0.5 Z"/></g>
<g><path style="opacity:1" fill="#75bee5" d="M 27.5,-0.5 C 37.5,-0.5 47.5,-0.5 57.5,-0.5C 51.2034,4.12893 45.5367,9.46226 40.5,15.5C 36.1773,10.2061 31.844,4.87278 27.5,-0.5 Z"/></g>
<g><path style="opacity:1" fill="#0d0d0d" d="M 57.5,-0.5 C 59.1667,-0.5 60.8333,-0.5 62.5,-0.5C 44.3204,10.1617 34.487,26.1617 33,47.5C 32.1832,54.7325 32.6832,61.7325 34.5,68.5C 34.7167,72.7051 35.3833,76.7051 36.5,80.5C 38.1662,91.9957 40.6662,103.329 44,114.5C 47.0444,117.051 50.2111,119.384 53.5,121.5C 60.7649,126.809 68.4315,131.642 76.5,136C 85.5764,136.913 94.5764,136.58 103.5,135C 110.905,130.974 117.905,126.474 124.5,121.5C 127.118,120.055 129.618,118.389 132,116.5C 135.523,106.772 137.689,96.7723 138.5,86.5C 139.222,86.0825 139.722,85.4158 140,84.5C 140.771,79.1454 141.605,73.812 142.5,68.5C 148.036,43.8165 141.703,22.6499 123.5,5C 120.233,2.8703 116.9,1.03697 113.5,-0.5C 115.833,-0.5 118.167,-0.5 120.5,-0.5C 127.139,4.13941 132.806,9.80607 137.5,16.5C 141.319,22.7903 143.986,29.4569 145.5,36.5C 146.891,42.739 147.557,49.0723 147.5,55.5C 146.447,58.8515 146.447,62.1849 147.5,65.5C 150.421,64.5934 153.421,64.2601 156.5,64.5C 159.46,67.0997 160.794,70.433 160.5,74.5C 160.708,79.6354 160.041,84.6354 158.5,89.5C 155.564,95.1005 151.564,99.7672 146.5,103.5C 145.833,103.833 145.167,104.167 144.5,104.5C 142.661,105.752 140.828,105.752 139,104.5C 137.342,108.808 135.842,113.142 134.5,117.5C 132.54,119.156 130.54,120.823 128.5,122.5C 125.527,124.147 122.86,126.147 120.5,128.5C 116.827,130 113.494,132 110.5,134.5C 118.192,135.801 126.026,135.801 134,134.5C 139.139,135.835 143.306,138.502 146.5,142.5C 150.354,148.584 152.021,155.251 151.5,162.5C 151.5,168.167 151.5,173.833 151.5,179.5C 150.5,179.5 149.5,179.5 148.5,179.5C 148.666,171.493 148.5,163.493 148,155.5C 147.232,147.777 143.398,142.277 136.5,139C 129.508,138.5 122.508,138.334 115.5,138.5C 113.833,138.5 112.167,138.5 110.5,138.5C 111.063,144.327 108.73,148.494 103.5,151C 92.8086,154.33 82.1419,154.33 71.5,151C 66.7131,148.264 64.3798,144.097 64.5,138.5C 56.6484,138.175 48.9818,138.508 41.5,139.5C 35.2458,141.253 31.0792,145.253 29,151.5C 28.5002,160.827 28.3335,170.161 28.5,179.5C 27.5,179.5 26.5,179.5 25.5,179.5C 25.5,174.833 25.5,170.167 25.5,165.5C 25.2665,160.105 25.5998,154.772 26.5,149.5C 30.4948,139.229 38.1614,134.563 49.5,135.5C 54.8333,135.5 60.1667,135.5 65.5,135.5C 64.935,132.192 62.935,130.192 59.5,129.5C 57.1401,127.147 54.4735,125.147 51.5,123.5C 49.3428,121.588 47.0094,119.921 44.5,118.5C 40.9059,115.312 38.9059,111.312 38.5,106.5C 38.6309,105.624 38.2975,104.957 37.5,104.5C 34.2729,105.782 31.2729,105.282 28.5,103C 24.2525,99.2583 20.5859,95.0917 17.5,90.5C 16.0898,86.2961 15.4231,81.9628 15.5,77.5C 14.3728,71.9141 16.0395,67.5808 20.5,64.5C 24.0943,62.9192 27.261,63.5858 30,66.5C 30.8151,61.6478 30.6484,56.9811 29.5,52.5C 29.8652,46.0695 30.8652,39.7361 32.5,33.5C 34.62,27.2598 37.2866,21.2598 40.5,15.5C 45.5367,9.46226 51.2034,4.12893 57.5,-0.5 Z"/></g>
<g><path style="opacity:1" fill="#f8e4d9" d="M 62.5,-0.5 C 79.5,-0.5 96.5,-0.5 113.5,-0.5C 116.9,1.03697 120.233,2.8703 123.5,5C 141.703,22.6499 148.036,43.8165 142.5,68.5C 140.833,68.5 139.167,68.5 137.5,68.5C 136.26,78.2216 133.26,87.2216 128.5,95.5C 129.39,93.2181 129.556,90.8848 129,88.5C 127.546,85.9289 126.38,83.2622 125.5,80.5C 125.5,79.8333 125.167,79.5 124.5,79.5C 128.838,76.1397 129.505,72.1397 126.5,67.5C 125.931,64.6655 124.264,62.9988 121.5,62.5C 123.605,61.1811 125.605,61.5144 127.5,63.5C 128.463,63.0302 128.463,62.3635 127.5,61.5C 132.539,59.7016 134.039,56.3683 132,51.5C 131.667,53.1667 131.333,54.8333 131,56.5C 130.814,54.0995 130.314,51.7662 129.5,49.5C 128.817,49.8627 128.15,50.1961 127.5,50.5C 127.5,50.1667 127.5,49.8333 127.5,49.5C 123.661,41.4906 120.494,33.1573 118,24.5C 110.324,13.3306 99.657,8.33056 86,9.5C 76.0476,8.98266 67.3809,11.9827 60,18.5C 56.196,28.0805 52.696,37.7472 49.5,47.5C 49.5654,47.9382 49.3988,48.2716 49,48.5C 48.6924,47.6919 48.1924,47.0253 47.5,46.5C 46.6751,48.3596 45.6751,50.0262 44.5,51.5C 44.5,52.1667 44.5,52.8333 44.5,53.5C 44.281,54.675 44.6143,55.675 45.5,56.5C 46.931,56.9766 48.2643,57.6433 49.5,58.5C 47.4197,59.5282 47.0864,60.8615 48.5,62.5C 46.9689,63.9245 47.3023,64.5912 49.5,64.5C 49.5,65.1667 49.5,65.8333 49.5,66.5C 48.8902,67.391 48.5569,68.391 48.5,69.5C 46.5776,73.7095 47.5776,77.0428 51.5,79.5C 50.6618,79.8417 50.3284,80.5084 50.5,81.5C 49.9688,83.5441 48.8022,85.2107 47,86.5C 46.5499,90.1875 46.7166,93.8542 47.5,97.5C 42.7194,88.4854 39.7194,78.8187 38.5,68.5C 37.1667,68.5 35.8333,68.5 34.5,68.5C 32.6832,61.7325 32.1832,54.7325 33,47.5C 34.487,26.1617 44.3204,10.1617 62.5,-0.5 Z"/></g>
<g><path style="opacity:1" fill="#76bfe6" d="M 120.5,-0.5 C 130.5,-0.5 140.5,-0.5 150.5,-0.5C 146.543,5.45665 142.21,11.1233 137.5,16.5C 132.806,9.80607 127.139,4.13941 120.5,-0.5 Z"/></g>
<g><path style="opacity:1" fill="#565758" d="M 150.5,-0.5 C 158.167,-0.5 165.833,-0.5 173.5,-0.5C 164.142,11.8519 154.809,24.1852 145.5,36.5C 143.986,29.4569 141.319,22.7903 137.5,16.5C 142.21,11.1233 146.543,5.45665 150.5,-0.5 Z"/></g>
<g><path style="opacity:1" fill="#77c1e8" d="M 173.5,-0.5 C 175.5,-0.5 177.5,-0.5 179.5,-0.5C 179.5,7.5 179.5,15.5 179.5,23.5C 168.473,33.8604 157.806,44.5271 147.5,55.5C 147.557,49.0723 146.891,42.739 145.5,36.5C 154.809,24.1852 164.142,11.8519 173.5,-0.5 Z"/></g>
<g><path style="opacity:1" fill="#facdbb" d="M 127.5,49.5 C 117.122,49.6438 106.789,50.3104 96.5,51.5C 96.7852,49.712 96.4519,48.0453 95.5,46.5C 93.6122,49.937 92.6122,53.6037 92.5,57.5C 95.734,61.6218 98.734,65.9551 101.5,70.5C 101.647,73.7916 102.647,76.7916 104.5,79.5C 104.611,80.1174 104.944,80.6174 105.5,81C 112.247,81.7925 118.914,81.6258 125.5,80.5C 126.38,83.2622 127.546,85.9289 129,88.5C 129.556,90.8848 129.39,93.2181 128.5,95.5C 128.489,97.0174 127.823,98.1841 126.5,99C 123.188,99.9376 119.855,100.771 116.5,101.5C 109.007,99.2709 101.34,97.9375 93.5,97.5C 93.3893,96.8826 93.056,96.3826 92.5,96C 88.5138,95.5012 84.5138,95.3345 80.5,95.5C 79.2801,93.9504 79.2801,92.2837 80.5,90.5C 83.6045,87.9659 87.2712,86.7992 91.5,87C 90.0443,85.2552 88.711,83.4219 87.5,81.5C 86.3112,80.5713 84.9778,80.238 83.5,80.5C 83.8064,77.6146 83.4731,74.9479 82.5,72.5C 82.9051,68.9521 82.4051,65.6188 81,62.5C 80.5034,64.8098 80.3367,67.1432 80.5,69.5C 80.2837,75.6027 78.1171,80.936 74,85.5C 72.7734,90.062 73.6067,94.062 76.5,97.5C 69.297,98.1734 62.1304,99.1734 55,100.5C 51.8318,100.894 49.3318,99.8942 47.5,97.5C 46.7166,93.8542 46.5499,90.1875 47,86.5C 48.8022,85.2107 49.9688,83.5441 50.5,81.5C 57.9131,82.1279 64.9131,81.4612 71.5,79.5C 73.8711,77.0034 74.8711,74.0034 74.5,70.5C 75.803,68.8577 77.1363,67.1911 78.5,65.5C 78.8161,61.4754 78.9828,57.4754 79,53.5C 78.8024,55.9105 77.6357,57.5772 75.5,58.5C 69.2807,56.7237 63.614,53.8903 58.5,50C 55.5682,48.8551 52.5682,48.0218 49.5,47.5C 52.696,37.7472 56.196,28.0805 60,18.5C 67.3809,11.9827 76.0476,8.98266 86,9.5C 99.657,8.33056 110.324,13.3306 118,24.5C 120.494,33.1573 123.661,41.4906 127.5,49.5 Z"/></g>
<g><path style="opacity:1" fill="#575858" d="M 179.5,23.5 C 179.5,30.8333 179.5,38.1667 179.5,45.5C 171.517,51.4858 163.851,57.8191 156.5,64.5C 153.421,64.2601 150.421,64.5934 147.5,65.5C 146.447,62.1849 146.447,58.8515 147.5,55.5C 157.806,44.5271 168.473,33.8604 179.5,23.5 Z"/></g>
<g><path style="opacity:1" fill="#565757" d="M -0.5,25.5 C 9.46505,34.9645 19.2984,44.6311 29,54.5C 29.4643,53.9056 29.631,53.2389 29.5,52.5C 30.6484,56.9811 30.8151,61.6478 30,66.5C 27.261,63.5858 24.0943,62.9192 20.5,64.5C 13.8142,58.4845 6.81417,52.8178 -0.5,47.5C -0.5,40.1667 -0.5,32.8333 -0.5,25.5 Z"/></g>
<g><path style="opacity:1" fill="#3a2e27" d="M 127.5,49.5 C 127.5,49.8333 127.5,50.1667 127.5,50.5C 127.5,52.5 127.5,54.5 127.5,56.5C 115.827,56.667 104.161,57.0003 92.5,57.5C 92.6122,53.6037 93.6122,49.937 95.5,46.5C 96.4519,48.0453 96.7852,49.712 96.5,51.5C 106.789,50.3104 117.122,49.6438 127.5,49.5 Z"/></g>
<g><path style="opacity:1" fill="#77c1e8" d="M 179.5,45.5 C 179.5,53.8333 179.5,62.1667 179.5,70.5C 173.857,72.4926 168.19,74.4926 162.5,76.5C 161.818,75.7573 161.151,75.0906 160.5,74.5C 160.794,70.433 159.46,67.0997 156.5,64.5C 163.851,57.8191 171.517,51.4858 179.5,45.5 Z"/></g>
<g><path style="opacity:1" fill="#3c2f28" d="M 49.5,47.5 C 52.5682,48.0218 55.5682,48.8551 58.5,50C 63.614,53.8903 69.2807,56.7237 75.5,58.5C 77.6357,57.5772 78.8024,55.9105 79,53.5C 78.9828,57.4754 78.8161,61.4754 78.5,65.5C 75.9837,65.2447 73.6504,64.4114 71.5,63C 64.5,62.3333 57.5,62.3333 50.5,63C 49.944,63.3826 49.6107,63.8826 49.5,64.5C 47.3023,64.5912 46.9689,63.9245 48.5,62.5C 49.9885,61.0615 51.8218,60.3948 54,60.5C 68.5511,62.7214 69.0511,61.2214 55.5,56C 52.3771,55.7935 49.3771,55.1268 46.5,54C 47.5171,52.9505 47.6838,51.7839 47,50.5C 46.6232,51.9423 45.7899,52.9423 44.5,53.5C 44.5,52.8333 44.5,52.1667 44.5,51.5C 45.6751,50.0262 46.6751,48.3596 47.5,46.5C 48.1924,47.0253 48.6924,47.6919 49,48.5C 49.3988,48.2716 49.5654,47.9382 49.5,47.5 Z"/></g>
<g><path style="opacity:1" fill="#76bfe6" d="M -0.5,47.5 C 6.81417,52.8178 13.8142,58.4845 20.5,64.5C 16.0395,67.5808 14.3728,71.9141 15.5,77.5C 10.1551,75.8292 4.82174,74.1626 -0.5,72.5C -0.5,64.1667 -0.5,55.8333 -0.5,47.5 Z"/></g>
<g><path style="opacity:1" fill="#6a5c54" d="M 44.5,51.5 C 43.3501,52.8502 42.6834,52.6836 42.5,51C 44.9535,46.3971 45.6202,46.5638 44.5,51.5 Z"/></g>
<g><path style="opacity:1" fill="#d09889" d="M 48.5,62.5 C 47.0864,60.8615 47.4197,59.5282 49.5,58.5C 48.2643,57.6433 46.931,56.9766 45.5,56.5C 44.6143,55.675 44.281,54.675 44.5,53.5C 45.7899,52.9423 46.6232,51.9423 47,50.5C 47.6838,51.7839 47.5171,52.9505 46.5,54C 49.3771,55.1268 52.3771,55.7935 55.5,56C 69.0511,61.2214 68.5511,62.7214 54,60.5C 51.8218,60.3948 49.9885,61.0615 48.5,62.5 Z"/></g>
<g><path style="opacity:1" fill="#c79283" d="M 127.5,61.5 C 119.884,60.4912 112.217,60.6578 104.5,62C 109.019,62.1753 113.353,62.6753 117.5,63.5C 112.657,63.1165 107.991,63.7832 103.5,65.5C 102.754,66.7362 102.421,68.0695 102.5,69.5C 102.5,70.1667 102.167,70.5 101.5,70.5C 98.734,65.9551 95.734,61.6218 92.5,57.5C 104.161,57.0003 115.827,56.667 127.5,56.5C 127.5,54.5 127.5,52.5 127.5,50.5C 128.15,50.1961 128.817,49.8627 129.5,49.5C 130.314,51.7662 130.814,54.0995 131,56.5C 131.333,54.8333 131.667,53.1667 132,51.5C 134.039,56.3683 132.539,59.7016 127.5,61.5 Z"/></g>
<g><path style="opacity:1" fill="#44332e" d="M 127.5,61.5 C 128.463,62.3635 128.463,63.0302 127.5,63.5C 125.605,61.5144 123.605,61.1811 121.5,62.5C 120.432,63.4345 119.099,63.7678 117.5,63.5C 113.353,62.6753 109.019,62.1753 104.5,62C 112.217,60.6578 119.884,60.4912 127.5,61.5 Z"/></g>
<g><path style="opacity:1" fill="#b38275" d="M 78.5,65.5 C 77.1363,67.1911 75.803,68.8577 74.5,70.5C 73.8333,70.5 73.5,70.1667 73.5,69.5C 72.962,67.8828 72.6287,66.2161 72.5,64.5C 65.5048,63.8333 58.5048,63.6666 51.5,64C 50.9341,64.9947 50.2674,65.828 49.5,66.5C 49.5,65.8333 49.5,65.1667 49.5,64.5C 49.6107,63.8826 49.944,63.3826 50.5,63C 57.5,62.3333 64.5,62.3333 71.5,63C 73.6504,64.4114 75.9837,65.2447 78.5,65.5 Z"/></g>
<g><path style="opacity:1" fill="#100e0d" d="M 73.5,69.5 C 72.1805,68.0582 70.5138,67.3915 68.5,67.5C 68.1667,67.5 67.8333,67.5 67.5,67.5C 67.1667,67.5 66.8333,67.5 66.5,67.5C 63.0381,66.5184 59.3714,66.185 55.5,66.5C 52.7939,66.6878 50.4605,67.6878 48.5,69.5C 48.5569,68.391 48.8902,67.391 49.5,66.5C 50.2674,65.828 50.9341,64.9947 51.5,64C 58.5048,63.6666 65.5048,63.8333 72.5,64.5C 72.6287,66.2161 72.962,67.8828 73.5,69.5 Z"/></g>
<g><path style="opacity:1" fill="#131110" d="M 121.5,62.5 C 124.264,62.9988 125.931,64.6655 126.5,67.5C 124.883,66.962 123.216,66.6287 121.5,66.5C 120.833,66.5 120.167,66.5 119.5,66.5C 118.167,66.5 116.833,66.5 115.5,66.5C 113.167,66.5 110.833,66.5 108.5,66.5C 106.053,66.615 104.053,67.615 102.5,69.5C 102.421,68.0695 102.754,66.7362 103.5,65.5C 107.991,63.7832 112.657,63.1165 117.5,63.5C 119.099,63.7678 120.432,63.4345 121.5,62.5 Z"/></g>
<g><path style="opacity:1" fill="#f9f8f8" d="M 108.5,66.5 C 106.182,72.7021 108.348,76.3687 115,77.5C 121.305,76.2188 123.472,72.5521 121.5,66.5C 123.216,66.6287 124.883,66.962 126.5,67.5C 129.505,72.1397 128.838,76.1397 124.5,79.5C 117.833,79.5 111.167,79.5 104.5,79.5C 102.647,76.7916 101.647,73.7916 101.5,70.5C 102.167,70.5 102.5,70.1667 102.5,69.5C 104.053,67.615 106.053,66.615 108.5,66.5 Z"/></g>
<g><path style="opacity:1" fill="#f8f7f6" d="M 55.5,66.5 C 53.088,75.0812 56.088,78.4145 64.5,76.5C 68.8282,74.8429 70.1615,71.8429 68.5,67.5C 70.5138,67.3915 72.1805,68.0582 73.5,69.5C 73.5,70.1667 73.8333,70.5 74.5,70.5C 74.8711,74.0034 73.8711,77.0034 71.5,79.5C 64.8333,79.5 58.1667,79.5 51.5,79.5C 47.5776,77.0428 46.5776,73.7095 48.5,69.5C 50.4605,67.6878 52.7939,66.6878 55.5,66.5 Z"/></g>
<g><path style="opacity:1" fill="#4d3320" d="M 55.5,66.5 C 59.3714,66.185 63.0381,66.5184 66.5,67.5C 65.5,67.5 64.5,67.5 63.5,67.5C 63.2627,68.791 63.596,69.791 64.5,70.5C 64.0377,71.8799 63.0377,72.5466 61.5,72.5C 54.4752,69.8517 53.8085,71.0183 59.5,76C 61.1341,76.4935 62.8008,76.6602 64.5,76.5C 56.088,78.4145 53.088,75.0812 55.5,66.5 Z"/></g>
<g><path style="opacity:1" fill="#f6f5f4" d="M 66.5,67.5 C 66.8333,67.5 67.1667,67.5 67.5,67.5C 67.573,69.0269 66.9063,70.0269 65.5,70.5C 65.1667,70.5 64.8333,70.5 64.5,70.5C 63.596,69.791 63.2627,68.791 63.5,67.5C 64.5,67.5 65.5,67.5 66.5,67.5 Z"/></g>
<g><path style="opacity:1" fill="#e0c8bc" d="M 155.5,72.5 C 154.442,69.0981 152.442,68.5981 149.5,71C 146.258,74.1173 144.591,77.9506 144.5,82.5C 143.876,82.9169 143.543,83.5836 143.5,84.5C 146.507,88.8095 145.84,92.4762 141.5,95.5C 141.548,87.8593 142.715,80.1927 145,72.5C 147.394,68.3873 150.894,66.5539 155.5,67C 159.948,79.1263 157.614,89.793 148.5,99C 145.928,101.287 142.928,102.453 139.5,102.5C 139.261,100.533 139.594,98.6995 140.5,97C 147.352,98.1517 151.519,95.3184 153,88.5C 152.333,89.1667 151.667,89.8333 151,90.5C 150.667,88.5 150.333,86.5 150,84.5C 144.746,79.2754 145.579,76.7754 152.5,77C 149.18,75.7387 148.846,74.072 151.5,72C 152.928,71.4209 154.262,71.5876 155.5,72.5 Z"/></g>
<g><path style="opacity:1" fill="#352a23" d="M 82.5,72.5 C 82.8227,78.6354 82.1561,84.6354 80.5,90.5C 79.2801,92.2837 79.2801,93.9504 80.5,95.5C 81.399,97.906 82.899,99.906 85,101.5C 87.9846,100.255 90.8179,98.9218 93.5,97.5C 101.34,97.9375 109.007,99.2709 116.5,101.5C 119.855,100.771 123.188,99.9376 126.5,99C 127.823,98.1841 128.489,97.0174 128.5,95.5C 133.26,87.2216 136.26,78.2216 137.5,68.5C 139.167,68.5 140.833,68.5 142.5,68.5C 141.605,73.812 140.771,79.1454 140,84.5C 139.722,85.4158 139.222,86.0825 138.5,86.5C 136.868,86.8247 135.868,87.8247 135.5,89.5C 133.426,97.0574 130.759,104.391 127.5,111.5C 125.173,112.831 123.173,114.498 121.5,116.5C 122.167,117.167 122.833,117.833 123.5,118.5C 116.787,120.915 117.12,121.915 124.5,121.5C 117.905,126.474 110.905,130.974 103.5,135C 94.5764,136.58 85.5764,136.913 76.5,136C 68.4315,131.642 60.7649,126.809 53.5,121.5C 55.8418,121.225 55.8418,120.392 53.5,119C 54.1667,118.333 54.8333,117.667 55.5,117C 53.6996,114.508 50.8663,112.675 47,111.5C 43.1265,103.253 40.9598,94.7529 40.5,86C 38.1088,85.3086 38.1088,84.3086 40.5,83C 39.0161,82.3378 37.6828,81.5045 36.5,80.5C 35.3833,76.7051 34.7167,72.7051 34.5,68.5C 35.8333,68.5 37.1667,68.5 38.5,68.5C 39.7194,78.8187 42.7194,88.4854 47.5,97.5C 49.3318,99.8942 51.8318,100.894 55,100.5C 62.1304,99.1734 69.297,98.1734 76.5,97.5C 77.4232,98.3029 78.4232,98.4696 79.5,98C 78.4272,96.6871 77.7605,95.1871 77.5,93.5C 81.2482,85.683 82.2482,77.683 80.5,69.5C 80.3367,67.1432 80.5034,64.8098 81,62.5C 82.4051,65.6188 82.9051,68.9521 82.5,72.5 Z"/></g>
<g><path style="opacity:1" fill="#583f2a" d="M 67.5,67.5 C 67.8333,67.5 68.1667,67.5 68.5,67.5C 70.1615,71.8429 68.8282,74.8429 64.5,76.5C 65.4756,75.1851 66.4756,73.8518 67.5,72.5C 66.7573,71.8182 66.0906,71.1515 65.5,70.5C 66.9063,70.0269 67.573,69.0269 67.5,67.5 Z"/></g>
<g><path style="opacity:1" fill="#9a7146" d="M 64.5,70.5 C 64.8333,70.5 65.1667,70.5 65.5,70.5C 66.0906,71.1515 66.7573,71.8182 67.5,72.5C 66.4756,73.8518 65.4756,75.1851 64.5,76.5C 62.8008,76.6602 61.1341,76.4935 59.5,76C 53.8085,71.0183 54.4752,69.8517 61.5,72.5C 63.0377,72.5466 64.0377,71.8799 64.5,70.5 Z"/></g>
<g><path style="opacity:1" fill="#57595a" d="M 179.5,70.5 C 179.5,75.5 179.5,80.5 179.5,85.5C 172.579,87.2515 165.579,88.5849 158.5,89.5C 160.041,84.6354 160.708,79.6354 160.5,74.5C 161.151,75.0906 161.818,75.7573 162.5,76.5C 168.19,74.4926 173.857,72.4926 179.5,70.5 Z"/></g>
<g><path style="opacity:1" fill="#575858" d="M -0.5,72.5 C 4.82174,74.1626 10.1551,75.8292 15.5,77.5C 15.4231,81.9628 16.0898,86.2961 17.5,90.5C 11.5746,88.9554 5.57462,87.6221 -0.5,86.5C -0.5,81.8333 -0.5,77.1667 -0.5,72.5 Z"/></g>
<g><path style="opacity:1" fill="#573b25" d="M 108.5,66.5 C 110.833,66.5 113.167,66.5 115.5,66.5C 115.263,67.791 115.596,68.791 116.5,69.5C 117.598,70.397 117.598,71.2303 116.5,72C 114.064,71.9466 111.731,72.1133 109.5,72.5C 110.55,74.8727 112.383,75.8727 115,75.5C 120.092,75.3031 121.259,73.3031 118.5,69.5C 119.404,68.791 119.737,67.791 119.5,66.5C 120.167,66.5 120.833,66.5 121.5,66.5C 123.472,72.5521 121.305,76.2188 115,77.5C 108.348,76.3687 106.182,72.7021 108.5,66.5 Z"/></g>
<g><path style="opacity:1" fill="#a1784f" d="M 116.5,69.5 C 117.167,69.5 117.833,69.5 118.5,69.5C 121.259,73.3031 120.092,75.3031 115,75.5C 112.383,75.8727 110.55,74.8727 109.5,72.5C 111.731,72.1133 114.064,71.9466 116.5,72C 117.598,71.2303 117.598,70.397 116.5,69.5 Z"/></g>
<g><path style="opacity:1" fill="#f5f4f3" d="M 115.5,66.5 C 116.833,66.5 118.167,66.5 119.5,66.5C 119.737,67.791 119.404,68.791 118.5,69.5C 117.833,69.5 117.167,69.5 116.5,69.5C 115.596,68.791 115.263,67.791 115.5,66.5 Z"/></g>
<g><path style="opacity:1" fill="#e4cbc0" d="M 32.5,94.5 C 30.1161,91.0833 30.1161,87.5833 32.5,84C 31.6918,79.0677 29.6918,74.7344 26.5,71C 21.5675,68.5713 19.2342,70.238 19.5,76C 19.4537,77.728 19.9537,79.228 21,80.5C 21.498,77.5184 21.6646,74.5184 21.5,71.5C 26.7326,72.1578 27.3992,73.9911 23.5,77C 30.1713,77.0008 31.0046,79.5008 26,84.5C 25.6667,86.5 25.3333,88.5 25,90.5C 24.1887,89.0403 23.3554,88.707 22.5,89.5C 24.2103,93.3774 27.0436,96.0441 31,97.5C 31.7648,97.4301 32.2648,97.0967 32.5,96.5C 36.6917,96.4028 38.0251,98.2361 36.5,102C 33.0699,102.459 30.0699,101.459 27.5,99C 18.3858,89.793 16.0525,79.1263 20.5,67C 22.1667,66.3333 23.8333,66.3333 25.5,67C 27.3333,68.8333 29.1667,70.6667 31,72.5C 33.2781,80.0563 35.1114,87.7229 36.5,95.5C 35.0413,95.5674 33.7079,95.2341 32.5,94.5 Z"/></g>
<g><path style="opacity:1" fill="#454443" d="M 51.5,79.5 C 58.1667,79.5 64.8333,79.5 71.5,79.5C 64.9131,81.4612 57.9131,82.1279 50.5,81.5C 50.3284,80.5084 50.6618,79.8417 51.5,79.5 Z"/></g>
<g><path style="opacity:1" fill="#181515" d="M 155.5,72.5 C 156.909,75.1777 156.743,77.8443 155,80.5C 155.083,77.8806 155.25,75.214 155.5,72.5 Z"/></g>
<g><path style="opacity:1" fill="#cc9687" d="M 82.5,72.5 C 83.4731,74.9479 83.8064,77.6146 83.5,80.5C 84.9778,80.238 86.3112,80.5713 87.5,81.5C 88.711,83.4219 90.0443,85.2552 91.5,87C 87.2712,86.7992 83.6045,87.9659 80.5,90.5C 82.1561,84.6354 82.8227,78.6354 82.5,72.5 Z"/></g>
<g><path style="opacity:1" fill="#332c2a" d="M 104.5,79.5 C 111.167,79.5 117.833,79.5 124.5,79.5C 125.167,79.5 125.5,79.8333 125.5,80.5C 118.914,81.6258 112.247,81.7925 105.5,81C 104.944,80.6174 104.611,80.1174 104.5,79.5 Z"/></g>
<g><path style="opacity:1" fill="#ce9687" d="M 80.5,69.5 C 82.2482,77.683 81.2482,85.683 77.5,93.5C 77.7605,95.1871 78.4272,96.6871 79.5,98C 78.4232,98.4696 77.4232,98.3029 76.5,97.5C 73.6067,94.062 72.7734,90.062 74,85.5C 78.1171,80.936 80.2837,75.6027 80.5,69.5 Z"/></g>
<g><path style="opacity:1" fill="#c38e7f" d="M 144.5,82.5 C 146.017,82.5106 147.184,83.1772 148,84.5C 148.579,88.2027 148.412,91.8694 147.5,95.5C 146.448,95.6495 145.448,95.4828 144.5,95C 145.848,93.4259 146.514,91.5925 146.5,89.5C 145.818,87.1591 145.151,84.8257 144.5,82.5 Z"/></g>
<g><path style="opacity:1" fill="#77c0e8" d="M 179.5,85.5 C 179.5,91.8333 179.5,98.1667 179.5,104.5C 168.321,104.828 157.321,104.495 146.5,103.5C 151.564,99.7672 155.564,95.1005 158.5,89.5C 165.579,88.5849 172.579,87.2515 179.5,85.5 Z"/></g>
<g><path style="opacity:1" fill="#76bde4" d="M -0.5,86.5 C 5.57462,87.6221 11.5746,88.9554 17.5,90.5C 20.5859,95.0917 24.2525,99.2583 28.5,103C 31.2729,105.282 34.2729,105.782 37.5,104.5C 38.2975,104.957 38.6309,105.624 38.5,106.5C 25.5,106.5 12.5,106.5 -0.5,106.5C -0.5,99.8333 -0.5,93.1667 -0.5,86.5 Z"/></g>
<g><path style="opacity:1" fill="#56473f" d="M 138.5,86.5 C 137.689,96.7723 135.523,106.772 132,116.5C 129.618,118.389 127.118,120.055 124.5,121.5C 117.12,121.915 116.787,120.915 123.5,118.5C 122.833,117.833 122.167,117.167 121.5,116.5C 123.173,114.498 125.173,112.831 127.5,111.5C 130.759,104.391 133.426,97.0574 135.5,89.5C 135.868,87.8247 136.868,86.8247 138.5,86.5 Z"/></g>
<g><path style="opacity:1" fill="#231d1b" d="M 32.5,94.5 C 32.5,95.1667 32.5,95.8333 32.5,96.5C 32.2648,97.0967 31.7648,97.4301 31,97.5C 27.0436,96.0441 24.2103,93.3774 22.5,89.5C 23.3554,88.707 24.1887,89.0403 25,90.5C 25.3333,88.5 25.6667,86.5 26,84.5C 31.0046,79.5008 30.1713,77.0008 23.5,77C 27.3992,73.9911 26.7326,72.1578 21.5,71.5C 21.6646,74.5184 21.498,77.5184 21,80.5C 19.9537,79.228 19.4537,77.728 19.5,76C 19.2342,70.238 21.5675,68.5713 26.5,71C 29.6918,74.7344 31.6918,79.0677 32.5,84C 30.1161,87.5833 30.1161,91.0833 32.5,94.5 Z"/></g>
<g><path style="opacity:1" fill="#b28274" d="M 29.5,82.5 C 30.4237,84.6484 30.4237,86.9817 29.5,89.5C 29.4858,91.5925 30.1524,93.4259 31.5,95C 30.552,95.4828 29.552,95.6495 28.5,95.5C 28.1336,93.095 27.4669,90.7617 26.5,88.5C 26.9837,86.1992 27.9837,84.1992 29.5,82.5 Z"/></g>
<g><path style="opacity:1" fill="#d59b8b" d="M 80.5,95.5 C 84.5138,95.3345 88.5138,95.5012 92.5,96C 93.056,96.3826 93.3893,96.8826 93.5,97.5C 90.8179,98.9218 87.9846,100.255 85,101.5C 82.899,99.906 81.399,97.906 80.5,95.5 Z"/></g>
<g><path style="opacity:1" fill="#55453e" d="M 36.5,80.5 C 37.6828,81.5045 39.0161,82.3378 40.5,83C 38.1088,84.3086 38.1088,85.3086 40.5,86C 40.9598,94.7529 43.1265,103.253 47,111.5C 50.8663,112.675 53.6996,114.508 55.5,117C 54.8333,117.667 54.1667,118.333 53.5,119C 55.8418,120.392 55.8418,121.225 53.5,121.5C 50.2111,119.384 47.0444,117.051 44,114.5C 40.6662,103.329 38.1662,91.9957 36.5,80.5 Z"/></g>
<g><path style="opacity:1" fill="#65879a" d="M 146.5,103.5 C 157.321,104.495 168.321,104.828 179.5,104.5C 179.5,104.833 179.5,105.167 179.5,105.5C 167.655,105.828 155.988,105.495 144.5,104.5C 145.167,104.167 145.833,103.833 146.5,103.5 Z"/></g>
<g><path style="opacity:1" fill="#575757" d="M 144.5,104.5 C 155.988,105.495 167.655,105.828 179.5,105.5C 179.5,112.167 179.5,118.833 179.5,125.5C 164.54,122.575 149.54,119.908 134.5,117.5C 135.842,113.142 137.342,108.808 139,104.5C 140.828,105.752 142.661,105.752 144.5,104.5 Z"/></g>
<g><path style="opacity:1" fill="#565656" d="M -0.5,106.5 C 12.5,106.5 25.5,106.5 38.5,106.5C 38.9059,111.312 40.9059,115.312 44.5,118.5C 29.5,121.167 14.5,123.833 -0.5,126.5C -0.5,119.833 -0.5,113.167 -0.5,106.5 Z"/></g>
<g><path style="opacity:1" fill="#f3c7b5" d="M 93.5,122.5 C 99.1249,118.912 98.7916,117.912 92.5,119.5C 87.9605,119.678 83.4605,119.345 79,118.5C 78.1667,118.667 77.3333,118.833 76.5,119C 77.4158,119.278 78.0825,119.778 78.5,120.5C 78.9175,121.222 79.5842,121.722 80.5,122C 79.9056,122.464 79.2389,122.631 78.5,122.5C 73.4103,120.788 68.7436,118.288 64.5,115C 60.8893,108.266 62.8893,105.933 70.5,108C 76.5297,111.783 82.0297,111.283 87,106.5C 87.5,107.667 88.3333,108.5 89.5,109C 91.5,109.167 93.5,109.333 95.5,109.5C 101.56,108.818 107.56,107.818 113.5,106.5C 111.205,117.013 104.538,122.346 93.5,122.5 Z"/></g>
<g><path style="opacity:1" fill="#413631" d="M 106.5,110.5 C 107.848,109.399 109.348,108.399 111,107.5C 111.617,108.449 111.451,109.282 110.5,110C 109.207,110.49 107.873,110.657 106.5,110.5 Z"/></g>
<g><path style="opacity:1" fill="#352c29" d="M 106.5,110.5 C 104.438,111.776 102.104,112.61 99.5,113C 91.5,113.667 83.5,113.667 75.5,113C 71.8659,112.844 68.5326,111.844 65.5,110C 79.0889,111.78 92.7555,111.946 106.5,110.5 Z"/></g>
<g><path style="opacity:1" fill="#77bfe6" d="M 134.5,117.5 C 149.54,119.908 164.54,122.575 179.5,125.5C 179.5,131.167 179.5,136.833 179.5,142.5C 162.271,136.206 145.271,129.539 128.5,122.5C 130.54,120.823 132.54,119.156 134.5,117.5 Z"/></g>
<g><path style="opacity:1" fill="#77bfe6" d="M 44.5,118.5 C 47.0094,119.921 49.3428,121.588 51.5,123.5C 34.4456,130.686 17.1123,137.353 -0.5,143.5C -0.5,137.833 -0.5,132.167 -0.5,126.5C 14.5,123.833 29.5,121.167 44.5,118.5 Z"/></g>
<g><path style="opacity:1" fill="#241c1a" d="M 92.5,119.5 C 88.6038,120.501 83.9371,120.834 78.5,120.5C 78.0825,119.778 77.4158,119.278 76.5,119C 77.3333,118.833 78.1667,118.667 79,118.5C 83.4605,119.345 87.9605,119.678 92.5,119.5 Z"/></g>
<g><path style="opacity:1" fill="#c79485" d="M 92.5,119.5 C 98.7916,117.912 99.1249,118.912 93.5,122.5C 88.3554,123.691 83.3554,123.691 78.5,122.5C 79.2389,122.631 79.9056,122.464 80.5,122C 79.5842,121.722 78.9175,121.222 78.5,120.5C 83.9371,120.834 88.6038,120.501 92.5,119.5 Z"/></g>
<g><path style="opacity:1" fill="#565758" d="M 128.5,122.5 C 145.271,129.539 162.271,136.206 179.5,142.5C 179.5,148.167 179.5,153.833 179.5,159.5C 168.343,154.089 157.343,148.422 146.5,142.5C 143.306,138.502 139.139,135.835 134,134.5C 126.026,135.801 118.192,135.801 110.5,134.5C 117.175,134.666 123.842,134.5 130.5,134C 127.3,131.901 123.967,130.067 120.5,128.5C 122.86,126.147 125.527,124.147 128.5,122.5 Z"/></g>
<g><path style="opacity:1" fill="#575859" d="M 51.5,123.5 C 54.4735,125.147 57.1401,127.147 59.5,129.5C 55.7991,131.012 52.4658,133.012 49.5,135.5C 38.1614,134.563 30.4948,139.229 26.5,149.5C 26.631,148.761 26.4643,148.094 26,147.5C 17.2748,152.397 8.44147,157.063 -0.5,161.5C -0.5,155.5 -0.5,149.5 -0.5,143.5C 17.1123,137.353 34.4456,130.686 51.5,123.5 Z"/></g>
<g><path style="opacity:1" fill="#74bbe2" d="M 120.5,128.5 C 123.967,130.067 127.3,131.901 130.5,134C 123.842,134.5 117.175,134.666 110.5,134.5C 113.494,132 116.827,130 120.5,128.5 Z"/></g>
<g><path style="opacity:1" fill="#74bae0" d="M 59.5,129.5 C 62.935,130.192 64.935,132.192 65.5,135.5C 60.1667,135.5 54.8333,135.5 49.5,135.5C 52.4658,133.012 55.7991,131.012 59.5,129.5 Z"/></g>
<g><path style="opacity:1" fill="#0164aa" d="M 115.5,138.5 C 122.508,138.334 129.508,138.5 136.5,139C 143.398,142.277 147.232,147.777 148,155.5C 148.5,163.493 148.666,171.493 148.5,179.5C 145.5,179.5 142.5,179.5 139.5,179.5C 139.969,169.062 139.302,158.728 137.5,148.5C 136.5,147.667 135.5,146.833 134.5,146C 130.11,145.228 125.777,145.394 121.5,146.5C 120.719,145.271 120.219,143.938 120,142.5C 114.564,146.887 113.064,145.554 115.5,138.5 Z"/></g>
<g><path style="opacity:1" fill="#0165aa" d="M 41.5,139.5 C 48.5316,139.17 55.5316,139.503 62.5,140.5C 61.7542,141.736 61.4208,143.07 61.5,144.5C 58.7354,144.202 56.2354,143.202 54,141.5C 53.9519,143.544 54.4519,145.544 55.5,147.5C 55.1667,147.833 54.8333,148.167 54.5,148.5C 49.8136,145.812 44.8136,144.979 39.5,146C 38.6667,146.833 37.8333,147.667 37,148.5C 35.5488,158.729 35.0488,169.062 35.5,179.5C 33.1667,179.5 30.8333,179.5 28.5,179.5C 28.3335,170.161 28.5002,160.827 29,151.5C 31.0792,145.253 35.2458,141.253 41.5,139.5 Z"/></g>
<g><path style="opacity:1" fill="#f3cbbb" d="M 71.5,136.5 C 72.2543,139.091 73.921,140.924 76.5,142C 82.7078,144.734 89.0411,145.068 95.5,143C 98.1064,142.208 100.106,140.708 101.5,138.5C 103.679,138.16 105.512,137.16 107,135.5C 108.121,144.063 104.288,148.896 95.5,150C 87.6617,150.967 79.9951,150.3 72.5,148C 67.7515,144.52 66.4182,140.02 68.5,134.5C 69.5178,135.193 70.5178,135.859 71.5,136.5 Z"/></g>
<g><path style="opacity:1" fill="#d79d8d" d="M 71.5,136.5 C 72.9733,137.072 74.3066,137.905 75.5,139C 84.1943,139.711 92.8609,139.544 101.5,138.5C 100.106,140.708 98.1064,142.208 95.5,143C 89.0411,145.068 82.7078,144.734 76.5,142C 73.921,140.924 72.2543,139.091 71.5,136.5 Z"/></g>
<g><path style="opacity:1" fill="#163f67" d="M 41.5,139.5 C 48.9818,138.508 56.6484,138.175 64.5,138.5C 64.3798,144.097 66.7131,148.264 71.5,151C 82.1419,154.33 92.8086,154.33 103.5,151C 108.73,148.494 111.063,144.327 110.5,138.5C 112.167,138.5 113.833,138.5 115.5,138.5C 113.064,145.554 114.564,146.887 120,142.5C 120.219,143.938 120.719,145.271 121.5,146.5C 125.777,145.394 130.11,145.228 134.5,146C 135.5,146.833 136.5,147.667 137.5,148.5C 139.302,158.728 139.969,169.062 139.5,179.5C 136.833,179.5 134.167,179.5 131.5,179.5C 131.5,175.167 131.5,170.833 131.5,166.5C 130.5,166.5 129.5,166.5 128.5,166.5C 127.5,165.833 126.5,165.167 125.5,164.5C 121.895,159.226 117.562,154.559 112.5,150.5C 105.901,157.533 97.7342,160.533 88,159.5C 78.068,160.723 69.7347,157.723 63,150.5C 58.9965,155.335 54.8298,160.002 50.5,164.5C 49.7784,164.918 49.2784,165.584 49,166.5C 48.501,170.821 48.3343,175.154 48.5,179.5C 48.1667,179.5 47.8333,179.5 47.5,179.5C 46.8333,162.167 46.1667,162.167 45.5,179.5C 42.1667,179.5 38.8333,179.5 35.5,179.5C 35.0488,169.062 35.5488,158.729 37,148.5C 37.8333,147.667 38.6667,146.833 39.5,146C 44.8136,144.979 49.8136,145.812 54.5,148.5C 54.8333,148.167 55.1667,147.833 55.5,147.5C 54.4519,145.544 53.9519,143.544 54,141.5C 56.2354,143.202 58.7354,144.202 61.5,144.5C 61.4208,143.07 61.7542,141.736 62.5,140.5C 55.5316,139.503 48.5316,139.17 41.5,139.5 Z"/></g>
<g><path style="opacity:1" fill="#77c0e7" d="M 146.5,142.5 C 157.343,148.422 168.343,154.089 179.5,159.5C 179.5,166.167 179.5,172.833 179.5,179.5C 178.833,179.5 178.167,179.5 177.5,179.5C 168.87,173.847 160.203,168.18 151.5,162.5C 152.021,155.251 150.354,148.584 146.5,142.5 Z"/></g>
<g><path style="opacity:1" fill="#77c1e8" d="M 26.5,149.5 C 25.5998,154.772 25.2665,160.105 25.5,165.5C 18.2911,169.932 11.2911,174.598 4.5,179.5C 2.83333,179.5 1.16667,179.5 -0.5,179.5C -0.5,173.5 -0.5,167.5 -0.5,161.5C 8.44147,157.063 17.2748,152.397 26,147.5C 26.4643,148.094 26.631,148.761 26.5,149.5 Z"/></g>
<g><path style="opacity:1" fill="#c7d4dc" d="M 125.5,164.5 C 123.275,167.262 121.275,170.262 119.5,173.5C 120.391,174.59 121.391,174.59 122.5,173.5C 123.466,175.396 123.799,177.396 123.5,179.5C 99.8333,179.5 76.1667,179.5 52.5,179.5C 52.1924,177.076 52.5258,174.743 53.5,172.5C 54.3957,173.506 55.0623,173.506 55.5,172.5C 54.3087,169.432 52.642,166.765 50.5,164.5C 54.8298,160.002 58.9965,155.335 63,150.5C 69.7347,157.723 78.068,160.723 88,159.5C 97.7342,160.533 105.901,157.533 112.5,150.5C 117.562,154.559 121.895,159.226 125.5,164.5 Z"/></g>
<g><path style="opacity:1" fill="#fbfcfd" d="M 50.5,164.5 C 52.642,166.765 54.3087,169.432 55.5,172.5C 55.0623,173.506 54.3957,173.506 53.5,172.5C 52.5258,174.743 52.1924,177.076 52.5,179.5C 51.1667,179.5 49.8333,179.5 48.5,179.5C 48.3343,175.154 48.501,170.821 49,166.5C 49.2784,165.584 49.7784,164.918 50.5,164.5 Z"/></g>
<g><path style="opacity:1" fill="#575858" d="M 151.5,162.5 C 160.203,168.18 168.87,173.847 177.5,179.5C 168.833,179.5 160.167,179.5 151.5,179.5C 151.5,173.833 151.5,168.167 151.5,162.5 Z"/></g>
<g><path style="opacity:1" fill="#fbfcfc" d="M 125.5,164.5 C 126.5,165.167 127.5,165.833 128.5,166.5C 128.5,170.833 128.5,175.167 128.5,179.5C 126.833,179.5 125.167,179.5 123.5,179.5C 123.799,177.396 123.466,175.396 122.5,173.5C 121.391,174.59 120.391,174.59 119.5,173.5C 121.275,170.262 123.275,167.262 125.5,164.5 Z"/></g>
<g><path style="opacity:1" fill="#575859" d="M 25.5,165.5 C 25.5,170.167 25.5,174.833 25.5,179.5C 18.5,179.5 11.5,179.5 4.5,179.5C 11.2911,174.598 18.2911,169.932 25.5,165.5 Z"/></g>
<g><path style="opacity:1" fill="#000000" d="M 47.5,179.5 C 46.8333,179.5 46.1667,179.5 45.5,179.5C 46.1667,162.167 46.8333,162.167 47.5,179.5 Z"/></g>
<g><path style="opacity:1" fill="#010102" d="M 128.5,166.5 C 129.5,166.5 130.5,166.5 131.5,166.5C 131.5,170.833 131.5,175.167 131.5,179.5C 130.5,179.5 129.5,179.5 128.5,179.5C 128.5,175.167 128.5,170.833 128.5,166.5 Z"/></g>
</svg>
